# xmcd
#
# Track frame offsets:
#	150
#	34665
#	75316
#	109144
#	140926
#	173862
#	200993
#	229041
#	256951
#	283622
#
# Disc length: 4179 seconds
#
# Revision: 1
# Processed by: cddbd v1.5.2PL0 Copyright (c) Steve Scherf et al.
# Submitted via: EZCDAudioConverter 8.5.0.1
#
DISCID=8e10510a
DTITLE=V/A - 80s Pop 3/3
DYEAR=2016
DGENRE=
TTITLE0=Pet Shop Boys - It's A Sin [Disco Mix]
TTITLE1=New Order - True Faith [Shep Pettibone Remix]
TTITLE2=Electronic - Getting Away With It [Extended Mix]
TTITLE3=Fine Young Cannibals - She Drives Me Crazy [The David Z Remix]
TTITLE4=Aztec Camera - Deep And Wide And Tall [Breakdown Mix]
TTITLE5=Chris Rea - On The Beach [Special Extended Remix]
TTITLE6=Fleetwood Mac - Little Lies [Extended Version]
TTITLE7=Mel and Kim - Respectable [Club Mix]
TTITLE8=Dusty Springfield - Nothing Has Been Proved [Club Mix]
TTITLE9=Shakespear's Sister - You're History [Maximised Version]
EXTD=
EXTT0=
EXTT1=
EXTT2=
EXTT3=
EXTT4=
EXTT5=
EXTT6=
EXTT7=
EXTT8=
EXTT9=
PLAYORDER=
